<svg xmlns="http://www.w3.org/2000/svg" width="24" height="24" viewBox="0 0 24 24">
  <defs>
    <linearGradient id="hintGradient" x1="0%" y1="0%" x2="100%">
      <stop offset="0%" stop-color="#FFD14C"/>
      <stop offset="70%" stop-color="#FFAB2C"/>
      <stop offset="100%" stop-color="#FF8F00"/>
    </linearGradient>
    <radialGradient id="glowGradient" cx="50%" cy="30%" r="60%" fx="50%" fy="30%">
      <stop offset="0%" stop-color="#FFFFFF" stop-opacity="1"/>
      <stop offset="100%" stop-color="#FFFFFF" stop-opacity="0.2"/>
    </radialGradient>
  </defs>
  <path d="M9 21c0 .55.45 1 1 1h4c.55 0 1-.45 1-1v-1H9v1zm3-19C8.14 2 5 5.14 5 9c0 2.38 1.19 4.47 3 5.74V17c0 .55.45 1 1 1h6c.55 0 1-.45 1-1v-2.26c1.81-1.27 3-3.36 3-5.74 0-3.86-3.14-7-7-7zm2.85 11.1l-.85.6V16h-4v-2.3l-.85-.6C7.8 12.16 7 10.63 7 9c0-2.76 2.24-5 5-5s5 2.24 5 5c0 1.63-.8 3.16-2.15 4.1z" 
        fill="url(#hintGradient)" 
        stroke="#FF8F00" 
        stroke-width="0.3" 
        stroke-linejoin="round"
        stroke-linecap="round"/>
  
  <!-- 增强光线效果 -->
  <circle cx="12" cy="7" r="2.5" fill="url(#glowGradient)" opacity="0.8"/>
</svg>
