<svg xmlns="http://www.w3.org/2000/svg" width="24" height="24" viewBox="0 0 24 24">
  <defs>
    <linearGradient id="loadGradient" x1="0%" y1="0%" x2="100%" y2="100%">
      <stop offset="0%" stop-color="#53DEA2"/>
      <stop offset="50%" stop-color="#36B0A8"/>
      <stop offset="100%" stop-color="#185A9D"/>
    </linearGradient>
  </defs>
  <path d="M15 15H5c-.55 0-1-.45-1-1V5c0-.55.45-1 1-1h4V3H5c-1.1 0-2 .9-2 2v10c0 1.1.9 2 2 2h10c1.1 0 2-.9 2-2v-4h-2v4zm-5-9c-.28 0-.53.11-.71.29L7.59 8l2.7 2.71c.39.39 1.03.39 1.42 0 .39-.39.39-1.03 0-1.42L10.83 8.41 11.71 7.5c.18-.19.29-.44.29-.71 0-.55-.45-1-1-1zm11 1v-4h-2v4h-4v2h4v4h2v-4h4V7h-4z" 
        fill="url(#loadGradient)" 
        stroke="#185A9D" 
        stroke-width="0.3" 
        stroke-linejoin="round"
        stroke-linecap="round"/>
</svg>
