<svg xmlns="http://www.w3.org/2000/svg" width="24" height="24" viewBox="0 0 24 24">
  <defs>
    <linearGradient id="logoutGradient" x1="0%" y1="0%" x2="100%" y2="100%">
      <stop offset="0%" stop-color="#FF7062"/>
      <stop offset="50%" stop-color="#FF7E64"/>
      <stop offset="100%" stop-color="#FF9966"/>
    </linearGradient>
  </defs>
  <path d="M10.09 15.59L11.5 17c.39.39 1.02.39 1.41 0l5-5c.39-.39.39-1.02 0-1.41l-5-5c-.39-.39-1.02-.39-1.41 0-.39.39-.39 1.02 0 1.41L14.67 10H3c-.55 0-1 .45-1 1v2c0 .55.45 1 1 1h11.67l-3.17 3.17c-.39.39-.39 1.02 0 1.41zM19 3H5c-1.11 0-2 .9-2 2v4h2V5h14v14H5v-4H3v4c0 1.1.89 2 2 2h14c1.1 0 2-.9 2-2V5c0-1.1-.9-2-2-2z" 
        fill="url(#logoutGradient)" 
        stroke="#FF5E62" 
        stroke-width="0.35" 
        stroke-linejoin="round"
        stroke-linecap="round"/>
</svg>
