<svg xmlns="http://www.w3.org/2000/svg" width="24" height="24" viewBox="0 0 24 24">
  <defs>
    <linearGradient id="newGameGradient" x1="0%" y1="0%" x2="100%" y2="100%">
      <stop offset="0%" stop-color="#FFFFFF"/>
      <stop offset="100%" stop-color="#F0F0F0"/>
    </linearGradient>
    <radialGradient id="glossGradient" cx="30%" cy="30%" r="60%">
      <stop offset="0%" stop-color="#FFFFFF" stop-opacity="0.3"/>
      <stop offset="100%" stop-color="#FFFFFF" stop-opacity="0"/>
    </radialGradient>
  </defs>
  <path d="M19 3H5c-1.11 0-2 .9-2 2v14c0 1.1.89 2 2 2h14c1.11 0 2-.9 2-2V5c0-1.1-.89-2-2-2zm-2 10h-4v4c0 .55-.45 1-1 1s-1-.45-1-1v-4H7c-.55 0-1-.45-1-1s.45-1 1-1h4V7c0-.55.45-1 1-1s1 .45 1 1v4h4c.55 0 1 .45 1 1s-.45 1-1 1z" 
        fill="url(#newGameGradient)" 
        stroke="#CCCCCC" 
        stroke-width="0.3" 
        stroke-linejoin="round"
        stroke-linecap="round"/>
  
  <!-- 添加光泽效果 -->
  <rect x="3" y="3" width="18" height="18" rx="2" ry="2" fill="url(#glossGradient)" opacity="0.7"/>
</svg>
