<svg xmlns="http://www.w3.org/2000/svg" width="24" height="24" viewBox="0 0 24 24">
  <defs>
    <linearGradient id="restartGradient" x1="0%" y1="0%" x2="100%" y2="100%">
      <stop offset="0%" stop-color="#BC32D0"/>
      <stop offset="50%" stop-color="#8E24AA"/>
      <stop offset="100%" stop-color="#6A1B9A"/>
    </linearGradient>
  </defs>
  <path d="M17.65 6.35C16.2 4.9 14.21 4 12 4c-4.42 0-7.99 3.58-7.99 8s3.57 8 7.99 8c3.73 0 6.84-2.55 7.73-6h-2.08c-.82 2.33-3.04 4-5.65 4-3.31 0-6-2.69-6-6s2.69-6 6-6c1.66 0 3.14.69 4.22 1.78L13 12c-.39.39-.39 1.02 0 1.41.39.39 1.02.39 1.41 0l5-5c.39-.39.39-1.02 0-1.41l-5-5c-.39-.39-1.02-.39-1.41 0-.39.39-.39 1.02 0 1.41l3.65 3.94z" 
        fill="url(#restartGradient)" 
        stroke="#6A1B9A" 
        stroke-width="0.35" 
        stroke-linejoin="round"
        stroke-linecap="round"/>
</svg>
