<svg xmlns="http://www.w3.org/2000/svg" width="24" height="24" viewBox="0 0 24 24">
  <defs>
    <linearGradient id="saveGradient" x1="0%" y1="0%" x2="100%">
      <stop offset="0%" stop-color="#23B9FF"/>
      <stop offset="50%" stop-color="#0695D6"/>
      <stop offset="100%" stop-color="#0277BD"/>
    </linearGradient>
    <radialGradient id="diskGradient" cx="50%" cy="50%" r="70%">
      <stop offset="0%" stop-color="#FFFFFF" stop-opacity="1"/>
      <stop offset="100%" stop-color="#E6E6E6" stop-opacity="0.8"/>
    </radialGradient>
  </defs>
  <path d="M17 3H5c-1.11 0-2 .9-2 2v14c0 1.1.89 2 2 2h14c1.1 0 2-.9 2-2V7l-4-4zm-5 16c-1.66 0-3-1.34-3-3s1.34-3 3-3 3 1.34 3 3-1.34 3-3 3zm3-10H5V5h10v4z" 
        fill="url(#saveGradient)" 
        stroke="#0277BD" 
        stroke-width="0.35" 
        stroke-linejoin="round"
        stroke-linecap="round"/>
  
  <!-- 改进磁盘效果 -->
  <circle cx="12" cy="16" r="2" fill="url(#diskGradient)"/>
</svg>
